HIERARCHY
ROOT hip
{
  OFFSET 0 0 0
  CHANNELS 6 Xposition Yposition Zposition Zrotation Yrotation Xrotation
  JOINT abdomen
  {
    OFFSET 0 20.6881 -0.73152
    CHANNELS 3 Zrotation Xrotation Yrotation
    JOINT chest
    {
      OFFSET 0 11.7043 -0.48768
      CHANNELS 3 Zrotation Xrotation Yrotation
      JOINT neck
      {
        OFFSET 0 22.1894 -2.19456
        CHANNELS 3 Zrotation Xrotation Yrotation
        JOINT head
        {
          OFFSET -0.24384 7.07133 1.2192
          CHANNELS 3 Zrotation Xrotation Yrotation
          JOINT leftEye
          {
            OFFSET 4.14528 8.04674 8.04672
            CHANNELS 3 Zrotation Xrotation Yrotation
            End Site
            {
              OFFSET 1 0 0
            }
          }
          JOINT rightEye
          {
            OFFSET -3.6576 8.04674 8.04672
            CHANNELS 3 Zrotation Xrotation Yrotation
            End Site
            {
              OFFSET 1 0 0
            }
          }
        }
      }
      JOINT rCollar
      {
        OFFSET -2.68224 19.2634 -4.8768
        CHANNELS 3 Zrotation Xrotation Yrotation
        JOINT rShldr
        {
          OFFSET -8.77824 -1.95073 1.46304
          CHANNELS 3 Zrotation Xrotation Yrotation
          JOINT rForeArm
          {
            OFFSET -28.1742 -1.7115 0.48768
            CHANNELS 3 Zrotation Xrotation Yrotation
            JOINT rHand
            {
              OFFSET -22.5879 0.773209 7.07136
              CHANNELS 3 Zrotation Xrotation Yrotation
              JOINT rThumb1
              {
                OFFSET -1.2192 -0.487915 3.41376
                CHANNELS 3 Zrotation Xrotation Yrotation
                JOINT rThumb2
                {
                  OFFSET -3.37035 -0.52449 3.41376
                  CHANNELS 3 Zrotation Xrotation Yrotation
                  End Site
                  {
                    OFFSET -1.78271 -1.18214 1.43049
                  }
                }
              }
              JOINT rIndex1
              {
                OFFSET -7.75947 0.938293 5.60832
                CHANNELS 3 Zrotation Xrotation Yrotation
                JOINT rIndex2
                {
                  OFFSET -2.54057 -0.884171 1.56538
                  CHANNELS 3 Zrotation Xrotation Yrotation
                  End Site
                  {
                    OFFSET -1.62519 -0.234802 1.16502
                  }
                }
              }
              JOINT rMid1
              {
                OFFSET -8.24714 1.18213 3.41376
                CHANNELS 3 Zrotation Xrotation Yrotation
                JOINT rMid2
                {
                  OFFSET -3.10165 -0.590103 1.0647
                  CHANNELS 3 Zrotation Xrotation Yrotation
                  End Site
                  {
                    OFFSET -2.48547 -0.328903 0.83742
                  }
                }
              }
              JOINT rRing1
              {
                OFFSET -8.82822 0.546677 1.51678
                CHANNELS 3 Zrotation Xrotation Yrotation
                JOINT rRing2
                {
                  OFFSET -2.60934 -0.819778 -0.0198488
                  CHANNELS 3 Zrotation Xrotation Yrotation
                  End Site
                  {
                    OFFSET -2.33842 -0.294052 0.168128
                  }
                }
              }
              JOINT rPinky1
              {
                OFFSET -8.27202 -0.0477905 -0.4584
                CHANNELS 3 Zrotation Xrotation Yrotation
                JOINT rPinky2
                {
                  OFFSET -1.82734 -0.647385 -0.700984
                  CHANNELS 3 Zrotation Xrotation Yrotation
                  End Site
                  {
                    OFFSET -1.69225 -0.51767 -0.607171
                  }
                }
              }
            }
          }
        }
      }
      JOINT lCollar
      {
        OFFSET 2.68224 19.2634 -4.8768
        CHANNELS 3 Zrotation Xrotation Yrotation
        JOINT lShldr
        {
          OFFSET 8.77824 -1.95073 1.46304
          CHANNELS 3 Zrotation Xrotation Yrotation
          JOINT lForeArm
          {
            OFFSET 28.1742 -1.7115 0.48768
            CHANNELS 3 Zrotation Xrotation Yrotation
            JOINT lHand
            {
              OFFSET 22.5879 0.773209 7.07136
              CHANNELS 3 Zrotation Xrotation Yrotation
              JOINT lThumb1
              {
                OFFSET 1.2192 -0.487915 3.41376
                CHANNELS 3 Zrotation Xrotation Yrotation
                JOINT lThumb2
                {
                  OFFSET 3.37035 -0.52449 3.41376
                  CHANNELS 3 Zrotation Xrotation Yrotation
                  End Site
                  {
                    OFFSET 1.78271 -1.18214 1.43049
                  }
                }
              }
              JOINT lIndex1
              {
                OFFSET 7.75947 0.938293 5.60832
                CHANNELS 3 Zrotation Xrotation Yrotation
                JOINT lIndex2
                {
                  OFFSET 2.54057 -0.884171 1.56538
                  CHANNELS 3 Zrotation Xrotation Yrotation
                  End Site
                  {
                    OFFSET 1.62519 -0.234802 1.16502
                  }
                }
              }
              JOINT lMid1
              {
                OFFSET 8.24714 1.18213 3.41376
                CHANNELS 3 Zrotation Xrotation Yrotation
                JOINT lMid2
                {
                  OFFSET 3.10165 -0.590103 1.0647
                  CHANNELS 3 Zrotation Xrotation Yrotation
                  End Site
                  {
                    OFFSET 2.48547 -0.328903 0.83742
                  }
                }
              }
              JOINT lRing1
              {
                OFFSET 8.82822 0.546677 1.51678
                CHANNELS 3 Zrotation Xrotation Yrotation
                JOINT lRing2
                {
                  OFFSET 2.60934 -0.819778 -0.0198488
                  CHANNELS 3 Zrotation Xrotation Yrotation
                  End Site
                  {
                    OFFSET 2.33842 -0.294052 0.168128
                  }
                }
              }
              JOINT lPinky1
              {
                OFFSET 8.27202 -0.0477905 -0.4584
                CHANNELS 3 Zrotation Xrotation Yrotation
                JOINT lPinky2
                {
                  OFFSET 1.82734 -0.647385 -0.700984
                  CHANNELS 3 Zrotation Xrotation Yrotation
                  End Site
                  {
                    OFFSET 1.69225 -0.51767 -0.607171
                  }
                }
              }
            }
          }
        }
      }
    }
  }
  JOINT rButtock
  {
    OFFSET -8.77824 4.35084 1.2192
    CHANNELS 3 Zrotation Xrotation Yrotation
    JOINT rThigh
    {
      OFFSET 0 -1.70687 -2.19456
      CHANNELS 3 Zrotation Xrotation Yrotation
      JOINT rShin
      {
        OFFSET 0 -36.8199 0.73152
        CHANNELS 3 Zrotation Xrotation Yrotation
        JOINT rFoot
        {
          OFFSET 0.73152 -45.1104 -5.12064
          CHANNELS 3 Zrotation Xrotation Yrotation
          End Site
          {
            OFFSET -1.1221 -3.69964 12.103
          }
        }
      }
    }
  }
  JOINT lButtock
  {
    OFFSET 8.77824 4.35084 1.2192
    CHANNELS 3 Zrotation Xrotation Yrotation
    JOINT lThigh
    {
      OFFSET 0 -1.70687 -2.19456
      CHANNELS 3 Zrotation Xrotation Yrotation
      JOINT lShin
      {
        OFFSET 0 -36.8199 0.73152
        CHANNELS 3 Zrotation Xrotation Yrotation
        JOINT lFoot
        {
          OFFSET -0.73152 -45.1104 -5.12064
          CHANNELS 3 Zrotation Xrotation Yrotation
          End Site
          {
            OFFSET 1.1221 -3.69964 12.103
          }
        }
      }
    }
  }
}
MOTION
Frames:	5
Frame Time:	0.00833333
46.0618 81.9974 -182.959 0.0 0.0 0.0 0.262209 -0.00240319 0.00752832 0.0724431 -0.00388227 0.0125515 8.16378e-16 0.0 3.10601e-18 2.50344e-15 3.18055e-15 -1.86361e-17 -0.0 0.0 0.0 -0.0 0.0 0.0 4.9565e-16 -3.88251e-19 1.49089e-16 1.07068e-14 1.11816e-16 7.95139e-16 1.54257e-13 -4.37326e-14 3.18055e-15 1.74898e-12 5.20319e-14 -9.54166e-15 4.12712e-12 1.56574e-14 -9.54166e-15 7.1157e-12 1.90833e-14 -9.54166e-15 4.13154e-12 1.59028e-14 -2.22639e-14 7.73091 5.47488 0.417314 4.12632e-12 1.56046e-14 -3.18055e-15 2.90554 0.965183 0.102902 4.13498e-12 1.56046e-14 -4.77083e-15 10.2786 0.731801 0.0259123 4.12637e-12 1.51076e-14 6.36111e-15 2.22167 -0.733487 -0.20892 3.98908e-16 0.0 -1.49089e-16 6.79168e-15 1.2424e-16 -7.95139e-16 1.5048e-13 4.67144e-14 2.22639e-14 1.75051e-12 -4.1869e-14 -1.90833e-14 4.1263e-12 7.89245e-15 -9.54166e-15 7.13597e-12 1.27222e-14 -5.56597e-15 4.12001e-12 9.1441e-15 6.36111e-15 -7.73091 5.47488 -0.417314 4.12602e-12 7.95139e-15 -6.36111e-15 -2.90554 0.965183 -0.102902 4.12186e-12 8.05078e-15 -3.97569e-15 -10.2786 0.731801 -0.0259123 4.13293e-12 9.93923e-15 -1.59028e-14 -2.22167 -0.733487 0.20892 -2.03217e-16 0.0 -3.88251e-19 0.660464 -3.79298 -0.0559813 -0.00363611 1.31888 -0.0297751 -0.463043 2.47431 0.102447 2.03217e-16 0.0 3.88251e-19 -0.260009 -2.74929 0.0308218 0.00660599 -0.571626 0.0578543 0.458225 3.32107 -0.118786
44.3122 79.8583 -184.43 -4.9379 -3.7815 8.3739 1.66883 -0.626289 1.42253 1.16356 0.436632 0.378041 -3.42651 -1.54938 -1.21491 5.52644 -1.5193 -0.843413 -0.0 0.0 0.0 -0.0 0.0 0.0 4.59139e-14 -2.30355e-14 4.01553e-14 17.5602 14.3401 4.42284 -6.71179 -3.79043 9.55472 0.0658133 -5.69584 -0.786281 -2.94831e-10 4.81591e-10 -5.78326e-11 -5.06728e-10 8.3413e-10 -1.0535e-10 -2.94827e-10 4.81591e-10 -5.78474e-11 7.73091 5.47488 0.417314 -2.94832e-10 4.81592e-10 -5.78278e-11 2.90554 0.965183 0.102902 -2.94824e-10 4.81592e-10 -5.78298e-11 10.2786 0.731801 0.0259123 -2.94832e-10 4.81593e-10 -5.78201e-11 2.22167 -0.733487 -0.20892 4.589e-14 -2.30329e-14 3.98831e-14 -22.302 12.676 4.22741 3.35728 -1.38562 -5.38673 0.000563101 -0.178819 0.0251184 1.4072e-10 -8.17538e-12 -1.50527e-10 2.43887e-10 -1.42019e-11 -2.60305e-10 1.40713e-10 -8.17712e-12 -1.50511e-10 -7.73091 5.47488 -0.417314 1.4072e-10 -8.17899e-12 -1.50525e-10 -2.90554 0.965183 -0.102902 1.40715e-10 -8.17893e-12 -1.50523e-10 -10.2786 0.731801 -0.0259123 1.40728e-10 -8.17647e-12 -1.50536e-10 -2.22167 -0.733487 0.20892 -2.03217e-16 0.0 -3.88251e-19 3.31997 -3.8764 1.54726 0.0540955 6.7685 0.164907 -0.310446 -3.4412 1.06559 2.03217e-16 0.0 3.88251e-19 2.05642 -15.3364 2.26062 -0.0164149 8.12452 -0.103184 0.569659 0.319928 2.07253
44.3208 79.933 -183.209 -4.9287 -4.2687 8.4579 3.17349 -1.27891 2.89794 2.31503 0.892873 0.758807 -7.11437 -3.18922 -2.49844 11.3182 -3.11309 -1.73291 -0.0 0.0 0.0 -0.0 0.0 0.0 9.32254e-14 -4.55241e-14 8.26634e-14 33.4661 29.195 10.0446 -12.4358 -7.43176 19.7675 -0.0378783 -11.7148 -1.64392 -6.07101e-10 9.74223e-10 -1.16118e-10 -1.04353e-09 1.68743e-09 -2.11726e-10 -6.07098e-10 9.74224e-10 -1.16135e-10 7.73091 5.47488 0.417314 -6.07103e-10 9.74226e-10 -1.16114e-10 2.90554 0.965183 0.102902 -6.07096e-10 9.74227e-10 -1.16117e-10 10.2786 0.731801 0.0259123 -6.07104e-10 9.74228e-10 -1.16109e-10 2.22167 -0.733487 -0.20892 9.32811e-14 -4.55191e-14 8.2418e-14 -48.1067 25.9539 9.40646 6.64921 -2.82412 -11.1322 0.00176481 -0.431958 0.0606746 2.73421e-10 -1.74274e-11 -2.69705e-10 4.74145e-10 -3.03162e-11 -4.66325e-10 2.73414e-10 -1.74324e-11 -2.6969e-10 -7.73091 5.47488 -0.417314 2.73421e-10 -1.7435e-11 -2.69705e-10 -2.90554 0.965183 -0.102902 2.73415e-10 -1.7435e-11 -2.69704e-10 -10.2786 0.731801 -0.0259123 2.73432e-10 -1.74319e-11 -2.69718e-10 -2.22167 -0.733487 0.20892 -2.03217e-16 0.0 -3.88251e-19 6.13702 -4.04431 3.24791 0.0745327 12.6099 0.379388 0.0663557 -9.74128 2.08587 2.03217e-16 0.0 3.88251e-19 5.67279 -28.5845 5.12389 0.0147648 17.4496 -0.285887 0.932127 -2.81859 4.37098
44.282 80.007 -182.015 -5.0474 -4.7455 8.6359 4.57446 -1.86948 4.25455 3.32892 1.31744 1.10928 -10.477 -4.63977 -3.6554 16.4448 -4.55394 -2.53736 -0.0 0.0 0.0 -0.0 0.0 0.0 1.3675e-13 -6.91058e-14 1.20168e-13 44.1954 41.8122 17.3668 -16.4701 -10.1079 29.0946 -0.2898 -17.0743 -2.45548 -8.92746e-10 1.44474e-09 -1.73479e-10 -1.53442e-09 2.50235e-09 -3.1603e-10 -8.92743e-10 1.44474e-09 -1.73498e-10 7.73091 5.47488 0.417314 -8.92749e-10 1.44474e-09 -1.73477e-10 2.90554 0.965183 0.102902 -8.92742e-10 1.44475e-09 -1.7348e-10 10.2786 0.731801 0.0259123 -8.9275e-10 1.44475e-09 -1.73473e-10 2.22167 -0.733487 -0.20892 1.36872e-13 -6.90988e-14 1.19948e-13 -73.665 37.0914 15.5819 9.30013 -4.01013 -16.1962 0.00215969 -0.536456 0.0753581 4.13906e-10 -2.45419e-11 -4.51561e-10 7.17388e-10 -4.26311e-11 -7.80903e-10 4.139e-10 -2.45496e-11 -4.51547e-10 -7.73091 5.47488 -0.417314 4.13907e-10 -2.45529e-11 -4.51563e-10 -2.90554 0.965183 -0.102902 4.139e-10 -2.45529e-11 -4.51561e-10 -10.2786 0.731801 -0.0259123 4.13919e-10 -2.45493e-11 -4.51577e-10 -2.22167 -0.733487 0.20892 -2.03217e-16 0.0 -3.88251e-19 8.65291 -4.03357 4.75469 0.0537951 17.667 0.578073 0.609074 -15.2527 3.09544 2.03217e-16 0.0 3.88251e-19 10.4109 -40.2325 8.49934 0.0964542 25.5161 -0.467773 1.48183 -5.64562 6.48627
44.2584 80.0062 -180.815 -5.2386 -5.1969 8.8419 5.65461 -2.30885 5.31242 4.00974 1.66301 1.38382 -12.8873 -5.62503 -4.48574 20.0009 -5.61608 -3.12275 -0.0 0.0 0.0 -0.0 0.0 0.0 1.70809e-13 -9.54203e-14 1.45163e-13 48.2225 49.836 25.3158 -18.784 -11.5551 35.8035 -0.561679 -20.798 -3.05995 -1.11183e-09 1.85997e-09 -2.28529e-10 -1.9105e-09 3.22136e-09 -4.15151e-10 -1.11182e-09 1.85997e-09 -2.28548e-10 7.73091 5.47488 0.417314 -1.11183e-09 1.85997e-09 -2.28529e-10 2.90554 0.965183 0.102902 -1.11182e-09 1.85998e-09 -2.28532e-10 10.2786 0.731801 0.0259123 -1.11183e-09 1.85998e-09 -2.28526e-10 2.22167 -0.733487 -0.20892 1.70962e-13 -9.54124e-14 1.44964e-13 -93.3671 43.7434 21.4006 10.9102 -4.71309 -19.5197 8.89795e-05 -0.269353 0.0378554 5.73852e-10 -2.63128e-11 -7.9011e-10 9.93091e-10 -4.54469e-11 -1.36687e-09 5.73845e-10 -2.63215e-11 -7.90097e-10 -7.73091 5.47488 -0.417314 5.73853e-10 -2.63253e-11 -7.90113e-10 -2.90554 0.965183 -0.102902 5.73845e-10 -2.63251e-11 -7.90113e-10 -10.2786 0.731801 -0.0259123 5.73864e-10 -2.63215e-11 -7.90129e-10 -2.22167 -0.733487 0.20892 -2.03217e-16 0.0 -3.88251e-19 10.384 -3.58503 5.77472 0.0184825 20.7642 0.712919 1.14092 -18.8096 3.97546 2.03217e-16 0.0 3.88251e-19 14.9778 -48.1626 11.4612 0.180317 30.437 -0.601556 2.0347 -7.72965 8.10737
